<svg xmlns="http://www.w3.org/2000/svg" version="1.1" xmlns:xlink="http://www.w3.org/1999/xlink" xmlns:svgjs="http://svgjs.com/svgjs" width="1980" height="1020" preserveAspectRatio="none" viewBox="0 0 1980 1020"><g mask="url(&quot;#SvgjsMask1036&quot;)" fill="none"><rect width="1980" height="1020" x="0" y="0" fill="#0e2a47"></rect><path d="M112 1020L1132 0L1990 0L970 1020z" fill="url(#SvgjsLinearGradient1037)"></path><path d="M769.4 1020L1789.4 0L2615.9 0L1595.9 1020z" fill="url(#SvgjsLinearGradient1037)"></path><path d="M1917 1020L897 0L297 0L1317 1020z" fill="url(#SvgjsLinearGradient1038)"></path><path d="M1246.6 1020L226.5999999999999 0L-5.900000000000091 0L1014.0999999999999 1020z" fill="url(#SvgjsLinearGradient1038)"></path><path d="M1396.712961754265 1020L1980 436.71296175426517L1980 1020z" fill="url(#SvgjsLinearGradient1037)"></path><path d="M0 1020L583.2870382457348 1020L 0 436.71296175426517z" fill="url(#SvgjsLinearGradient1038)"></path></g><defs><mask id="SvgjsMask1036"><rect width="1980" height="1020" fill="#ffffff"></rect></mask><linearGradient x1="0%" y1="100%" x2="100%" y2="0%" id="SvgjsLinearGradient1037"><stop stop-color="rgba(15, 70, 185, 0.2)" offset="0"></stop><stop stop-opacity="0" stop-color="rgba(15, 70, 185, 0.2)" offset="0.66"></stop></linearGradient><linearGradient x1="100%" y1="100%" x2="0%" y2="0%" id="SvgjsLinearGradient1038"><stop stop-color="rgba(15, 70, 185, 0.2)" offset="0"></stop><stop stop-opacity="0" stop-color="rgba(15, 70, 185, 0.2)" offset="0.66"></stop></linearGradient></defs></svg>