<svg xmlns="http://www.w3.org/2000/svg" version="1.1" xmlns:xlink="http://www.w3.org/1999/xlink" xmlns:svgjs="http://svgjs.com/svgjs" width="1440" height="560" preserveAspectRatio="none" viewBox="0 0 1440 560"><g mask="url(&quot;#SvgjsMask1002&quot;)" fill="none"><rect width="1440" height="560" x="0" y="0" fill="url(#SvgjsLinearGradient1003)"></rect><path d="M1440 0L1101.6 0L1440 279.78z" fill="rgba(255, 255, 255, .1)"></path><path d="M1101.6 0L1440 279.78L1440 372.80999999999995L929.29 0z" fill="rgba(255, 255, 255, .075)"></path><path d="M929.29 0L1440 372.80999999999995L1440 375.0899999999999L621.1099999999999 0z" fill="rgba(255, 255, 255, .05)"></path><path d="M621.11 0L1440 375.0899999999999L1440 387.87999999999994L185.32 0z" fill="rgba(255, 255, 255, .025)"></path><path d="M0 560L249.59 560L0 392.43z" fill="rgba(0, 0, 0, .1)"></path><path d="M0 392.43L249.59 560L499.65 560L0 292.58000000000004z" fill="rgba(0, 0, 0, .075)"></path><path d="M0 292.58000000000004L499.65 560L655.77 560L0 255.40000000000003z" fill="rgba(0, 0, 0, .05)"></path><path d="M0 255.40000000000003L655.77 560L1066.24 560L0 191.43000000000004z" fill="rgba(0, 0, 0, .025)"></path></g><defs><mask id="SvgjsMask1002"><rect width="1440" height="560" fill="#ffffff"></rect></mask><linearGradient x1="15.28%" y1="-39.29%" x2="84.72%" y2="139.29%" gradientUnits="userSpaceOnUse" id="SvgjsLinearGradient1003"><stop stop-color="#0e2a47" offset="0"></stop><stop stop-color="#00459e" offset="1"></stop></linearGradient></defs></svg>